<svg width="35" height="35" viewBox="0 0 35 35" fill="none" xmlns="http://www.w3.org/2000/svg">
<g id="mdi:instagram">
<path id="Vector" d="M11.3753 2.9165H23.6253C28.292 2.9165 32.0837 6.70817 32.0837 11.3748V23.6248C32.0837 25.8681 31.1925 28.0195 29.6063 29.6058C28.02 31.192 25.8686 32.0832 23.6253 32.0832H11.3753C6.70866 32.0832 2.91699 28.2915 2.91699 23.6248V11.3748C2.91699 9.13155 3.80814 6.98014 5.39438 5.39389C6.98063 3.80765 9.13204 2.9165 11.3753 2.9165ZM11.0837 5.83317C9.69127 5.83317 8.35591 6.38629 7.37135 7.37086C6.38678 8.35543 5.83366 9.69078 5.83366 11.0832V23.9165C5.83366 26.8186 8.18158 29.1665 11.0837 29.1665H23.917C25.3094 29.1665 26.6447 28.6134 27.6293 27.6288C28.6139 26.6442 29.167 25.3089 29.167 23.9165V11.0832C29.167 8.18109 26.8191 5.83317 23.917 5.83317H11.0837ZM25.1566 8.02067C25.64 8.02067 26.1037 8.21273 26.4456 8.55459C26.7874 8.89645 26.9795 9.36012 26.9795 9.84359C26.9795 10.3271 26.7874 10.7907 26.4456 11.1326C26.1037 11.4744 25.64 11.6665 25.1566 11.6665C24.6731 11.6665 24.2094 11.4744 23.8676 11.1326C23.5257 10.7907 23.3337 10.3271 23.3337 9.84359C23.3337 9.36012 23.5257 8.89645 23.8676 8.55459C24.2094 8.21273 24.6731 8.02067 25.1566 8.02067ZM17.5003 10.2082C19.4342 10.2082 21.2889 10.9764 22.6563 12.3438C24.0238 13.7113 24.792 15.566 24.792 17.4998C24.792 19.4337 24.0238 21.2884 22.6563 22.6558C21.2889 24.0233 19.4342 24.7915 17.5003 24.7915C15.5665 24.7915 13.7118 24.0233 12.3443 22.6558C10.9769 21.2884 10.2087 19.4337 10.2087 17.4998C10.2087 15.566 10.9769 13.7113 12.3443 12.3438C13.7118 10.9764 15.5665 10.2082 17.5003 10.2082ZM17.5003 13.1248C16.34 13.1248 15.2272 13.5858 14.4067 14.4062C13.5863 15.2267 13.1253 16.3395 13.1253 17.4998C13.1253 18.6602 13.5863 19.773 14.4067 20.5934C15.2272 21.4139 16.34 21.8748 17.5003 21.8748C18.6606 21.8748 19.7734 21.4139 20.5939 20.5934C21.4144 19.773 21.8753 18.6602 21.8753 17.4998C21.8753 16.3395 21.4144 15.2267 20.5939 14.4062C19.7734 13.5858 18.6606 13.1248 17.5003 13.1248Z" fill="#F0EBD8"/>
</g>
</svg>
